<svg xmlns="http://www.w3.org/2000/svg" xmlns:xlink="http://www.w3.org/1999/xlink" viewBox="0 0 872.27 494.89"><defs><style>.cls-1{fill:url(#linear-gradient);}.cls-2{fill:#59c16f;}.cls-3{fill:url(#radial-gradient);}.cls-4{fill:#7ac943;}</style><linearGradient id="linear-gradient" x1="387.6" y1="247.2" x2="313.99" y2="247.2" gradientUnits="userSpaceOnUse"><stop offset="0"/><stop offset="0.01" stop-color="#060c07"/><stop offset="0.05" stop-color="#19361f"/><stop offset="0.09" stop-color="#2a5c35"/><stop offset="0.13" stop-color="#397b47"/><stop offset="0.17" stop-color="#459556"/><stop offset="0.23" stop-color="#4ea961"/><stop offset="0.28" stop-color="#54b669"/><stop offset="0.36" stop-color="#58bf6e"/><stop offset="0.48" stop-color="#59c16f"/></linearGradient><radialGradient id="radial-gradient" cx="778.55" cy="403.09" r="156.23" gradientTransform="matrix(0.85, 0.52, -1.23, 2.05, 611.77, -824.68)" gradientUnits="userSpaceOnUse"><stop offset="0.08"/><stop offset="0.08" stop-color="#0a150c"/><stop offset="0.1" stop-color="#1c3d23"/><stop offset="0.11" stop-color="#2d6138"/><stop offset="0.13" stop-color="#3b7f49"/><stop offset="0.15" stop-color="#469757"/><stop offset="0.17" stop-color="#4eaa62"/><stop offset="0.19" stop-color="#54b769"/><stop offset="0.22" stop-color="#58bf6e"/><stop offset="0.29" stop-color="#59c16f"/></radialGradient></defs><title>IDUlogoAsset 8</title><g id="Layer_2" data-name="Layer 2"><g id="Layer_1-2" data-name="Layer 1"><g id="Green_D_Gradient" data-name="Green D Gradient"><path class="cls-1" d="M114.52,292.78c13.52-63,63.6-112,126.77-124.58,52-10.38,101,3.73,136.88,32.29a.24.24,0,0,0,.39-.19V61.36A61.36,61.36,0,0,1,439.92,0h0a.25.25,0,0,1,.24.25V327.7c0,96.19-81.31,173.36-177.25,166.24C165.77,486.73,92.41,395.78,114.52,292.78Zm57.64,36.82c0,56.8,46.4,103.2,103.2,103.2s103.2-46.4,103.2-103.2-46.4-103.2-103.2-103.2S172.16,272.8,172.16,329.6Z"/></g><g id="Green_D_Gap" data-name="Green D Gap"><path class="cls-2" d="M439.92,0h0a61.36,61.36,0,0,0-61.36,61.36V200.3a.16.16,0,0,1,0,.12V325.88c0,.15,0,.29,0,.43,0,1.1.06,2.19.06,3.29,0,56.8-46.4,103.2-103.2,103.2s-103.2-46.4-103.2-103.2,46.4-103.2,103.2-103.2A103.2,103.2,0,0,1,358.79,269V187.25c-33.26-19.39-74.34-27.67-117.5-19.05C178.12,180.82,128,229.79,114.52,292.78c-22.11,103,51.25,194,148.39,201.16,95.94,7.12,177.25-70.05,177.25-166.24V.25A.25.25,0,0,0,439.92,0Z"/></g><g id="Green_I" data-name="Green I"><path class="cls-2" d="M62.4,102.46H0V40.86H62.4ZM0,164.86H62.4v329.6h0A62.4,62.4,0,0,1,0,432.06V164.86Z"/></g><path id="Green_U_Gradient" data-name="Green U Gradient" class="cls-3" d="M756,165.3h62V494.46h0a62.18,62.18,0,0,1-62-62.32V165.3Z"/><g id="Green_U" data-name="Green U"><path class="cls-2" d="M756.38,165.29v164.8c0,56.8-46.4,103.2-103.2,103.2S550,386.89,550,330.09V165.29H488.38v164.8a164.8,164.8,0,1,0,329.6,0V165.29Z"/></g></g><g id="Layer_2-2" data-name="Layer 2"><path class="cls-4" d="M872.27,476.19a18.61,18.61,0,1,1-18.55-18.11A18.19,18.19,0,0,1,872.27,476.19Zm-32.57,0c0,8.06,6,14.46,14.13,14.46,7.95,0,13.8-6.4,13.8-14.35s-5.85-14.58-13.91-14.58S839.7,468.24,839.7,476.19Zm11.15,9.49h-4.19v-18.1a36.55,36.55,0,0,1,7-.56c3.42,0,5,.56,6.29,1.33a5,5,0,0,1,1.77,4c0,2-1.54,3.54-3.75,4.2v.22c1.76.66,2.76,2,3.31,4.42.55,2.76.88,3.86,1.32,4.52H858c-.55-.66-.89-2.32-1.44-4.41-.33-2-1.43-2.87-3.75-2.87h-2Zm.11-10.27h2c2.32,0,4.19-.77,4.19-2.65,0-1.65-1.21-2.76-3.86-2.76a10,10,0,0,0-2.32.23Z"/></g></g></svg>